<?xml version="1.0" standalone="no"?>
<svg xmlns:xlink="http://www.w3.org/1999/xlink" id="wave" style="transform:rotate(180deg); transition: 0.3s" viewBox="0 0 1440 100" version="1.1" xmlns="http://www.w3.org/2000/svg"><defs><linearGradient id="sw-gradient-0" x1="0" x2="0" y1="1" y2="0"><stop stop-color="rgba(255, 249, 234, 1)" offset="0%"/><stop stop-color="rgba(255, 249, 234, 1)" offset="100%"/></linearGradient></defs><path style="transform:translate(0, 0px); opacity:1" fill="url(#sw-gradient-0)" d="M0,20L26.7,26.7C53.3,33,107,47,160,48.3C213.3,50,267,40,320,43.3C373.3,47,427,63,480,61.7C533.3,60,587,40,640,26.7C693.3,13,747,7,800,3.3C853.3,0,907,0,960,3.3C1013.3,7,1067,13,1120,15C1173.3,17,1227,13,1280,13.3C1333.3,13,1387,17,1440,21.7C1493.3,27,1547,33,1600,41.7C1653.3,50,1707,60,1760,55C1813.3,50,1867,30,1920,33.3C1973.3,37,2027,63,2080,70C2133.3,77,2187,63,2240,53.3C2293.3,43,2347,37,2400,35C2453.3,33,2507,37,2560,45C2613.3,53,2667,67,2720,65C2773.3,63,2827,47,2880,36.7C2933.3,27,2987,23,3040,18.3C3093.3,13,3147,7,3200,15C3253.3,23,3307,47,3360,58.3C3413.3,70,3467,70,3520,66.7C3573.3,63,3627,57,3680,45C3733.3,33,3787,17,3813,8.3L3840,0L3840,100L3813.3,100C3786.7,100,3733,100,3680,100C3626.7,100,3573,100,3520,100C3466.7,100,3413,100,3360,100C3306.7,100,3253,100,3200,100C3146.7,100,3093,100,3040,100C2986.7,100,2933,100,2880,100C2826.7,100,2773,100,2720,100C2666.7,100,2613,100,2560,100C2506.7,100,2453,100,2400,100C2346.7,100,2293,100,2240,100C2186.7,100,2133,100,2080,100C2026.7,100,1973,100,1920,100C1866.7,100,1813,100,1760,100C1706.7,100,1653,100,1600,100C1546.7,100,1493,100,1440,100C1386.7,100,1333,100,1280,100C1226.7,100,1173,100,1120,100C1066.7,100,1013,100,960,100C906.7,100,853,100,800,100C746.7,100,693,100,640,100C586.7,100,533,100,480,100C426.7,100,373,100,320,100C266.7,100,213,100,160,100C106.7,100,53,100,27,100L0,100Z"/></svg>